inDegrees=no
num_controls=7
num_derivatives=13
num_iterations=156
num_multipliers=7
num_parameters=0
num_slacks=7
num_states=26
objective=0.516790
objective_accelerations=0.039547
objective_balance=0.002183
objective_effort=0.043452
objective_height=0.419981
objective_ligament=0.011628
solver_duration=2039.664367
status=Solve_Succeeded
success=true
DataType=double
version=3
OpenSimVersion=4.5
endheader
time	/jointset/ground_pelvis/pelvis_tilt/value	/jointset/ground_pelvis/pelvis_tx/value	/jointset/ground_pelvis/pelvis_ty/value	/jointset/hip_l/hip_flexion_l/value	/jointset/hip_l/hip_adduction_l/value	/jointset/hip_l/hip_rotation_l/value	/jointset/back/lumbar_extension/value	/jointset/patellofemoral_l/patellar_flexion_l/value	/jointset/knee_l/knee_flexion_l/value	/jointset/knee_l/knee_adduction_l/value	/jointset/knee_l/knee_rotation_l/value	/jointset/ankle_l/ankle_angle_l/value	/jointset/subtalar_l/subtalar_angle_l/value	/jointset/ground_pelvis/pelvis_tilt/speed	/jointset/ground_pelvis/pelvis_tx/speed	/jointset/ground_pelvis/pelvis_ty/speed	/jointset/hip_l/hip_flexion_l/speed	/jointset/hip_l/hip_adduction_l/speed	/jointset/hip_l/hip_rotation_l/speed	/jointset/back/lumbar_extension/speed	/jointset/patellofemoral_l/patellar_flexion_l/speed	/jointset/knee_l/knee_flexion_l/speed	/jointset/knee_l/knee_adduction_l/speed	/jointset/knee_l/knee_rotation_l/speed	/jointset/ankle_l/ankle_angle_l/speed	/jointset/subtalar_l/subtalar_angle_l/speed	/forceset/tau_hip_flexion_l	/forceset/tau_hip_adduction_l	/forceset/tau_hip_rotation_l	/forceset/tau_knee_flexion_l	/forceset/tau_ankle_angle_l	/forceset/tau_subtalar_angle_l	/forceset/tau_lumbar_extension	lambda_cid13_p0	lambda_cid13_p1	lambda_cid13_p2	lambda_cid13_p3	lambda_cid13_p4	lambda_cid13_p5	lambda_cid14_p0	/jointset/ground_pelvis/pelvis_tilt/accel	/jointset/ground_pelvis/pelvis_tx/accel	/jointset/ground_pelvis/pelvis_ty/accel	/jointset/hip_l/hip_flexion_l/accel	/jointset/hip_l/hip_adduction_l/accel	/jointset/hip_l/hip_rotation_l/accel	/jointset/back/lumbar_extension/accel	/jointset/patellofemoral_l/patellar_flexion_l/accel	/jointset/knee_l/knee_flexion_l/accel	/jointset/knee_l/knee_adduction_l/accel	/jointset/knee_l/knee_rotation_l/accel	/jointset/ankle_l/ankle_angle_l/accel	/jointset/subtalar_l/subtalar_angle_l/accel	gamma_cid13_p0	gamma_cid13_p1	gamma_cid13_p2	gamma_cid13_p3	gamma_cid13_p4	gamma_cid13_p5	gamma_cid14_p0
1	-0.154337856432971	-0.08807727083762515	0.7282117204870261	1.247620784326072	-0.3280608950741709	-0.002667299634512103	-0.9599309700137406	1.164259760478911	1.164259760478761	-0.0795603943441294	-0.1745325095687554	0.150080581469207	0.01441894363221696	0.1047246327640743	0.02587315772241409	0.06766254903428907	-0.2937154995155297	-2.213839046946453e-05	-0.06442260248553135	-0.001598255072965292	-0.1696549820751878	-0.1696549820751925	-0.0009364188483759611	-1.877331979922865e-05	0.01049723479223606	0.004822265045236976	-0.3954952995824914	0.01277477600656106	-0.004956342939565233	-0.2946636943196509	0.09622753234266537	0.04691169598809252	0.4337780376675524	-18.95818539361005	-17.27711843510543	2.554640199335688	5.782825023612938	-785.4534241137552	-74.84564429360869	-1.713105079302562	1.025881789219191	0.1732678729396264	1.238814696681455	-4.594837364736302	-0.0142024847871844	-1.403063630003412	0.2996742626022609	-4.115448471839597	-4.115448471839497	-0.2049499765451704	-0.01171446097168826	-0.8177488837987222	-0.2946381626074595	-9.977583208627763e-09	-1.221102353462943e-08	4.008624735282145e-08	3.922072592373352e-09	-2.229808030522111e-08	5.045027423357256e-08	-1.122888455729399e-08
1.01	-0.1532397639516128	-0.08780981813003012	0.7289500828588499	1.244454773316277	-0.3280612088809184	-0.003381859062854931	-0.9599310885968813	1.162357795394387	1.162357795394384	-0.07957883634483935	-0.1745326209575901	0.1501448060717784	0.01445320397995885	0.1148942317356896	0.02762531144604194	0.08000065904209053	-0.3394777852924499	-3.368569889980393e-05	-0.07848396659687334	0.001607839787162342	-0.2107335129501658	-0.2107335129501538	-0.002752501789315817	-3.628718065296366e-06	0.002344049681057673	0.002036357896466786	-0.3949201554936122	0.01293357100500553	-0.004990785735813789	-0.2943113850492854	0.09599641414065972	0.04705612980140342	0.4336387472174841	-19.00607541785332	-17.34435599480683	2.580089061066606	5.657499108923015	-785.2273495130947	-74.95298237641082	-1.752277186584251	1.012552717014618	0.1773801916695204	1.229913534225362	-4.565588795030029	0.006407987281828209	-1.406888598354361	0.3361241566518179	-4.103374204315685	-4.103374204313236	-0.1700234971436171	0.008122726886739189	-0.8146500966074858	-0.2695869176753887	-1.54876650421202e-08	-1.97990241494414e-08	5.312031927656341e-08	9.55400850567732e-09	-2.831594661496824e-08	5.683284371097554e-08	-1.451229181880939e-08
1.02	-0.1520399647273621	-0.08752460567127979	0.7298115472070309	1.24083140652654	-0.3280614303925197	-0.004236875291641876	-0.9598981402768023	1.160045181239316	1.160045181239461	-0.07961545638381348	-0.1745325821391823	0.150127389468872	0.01445980127088032	0.1250659813425816	0.02942510795347565	0.0922829443057263	-0.3851866555037767	-3.679361218903841e-06	-0.09251396257440611	0.005015817004642206	-0.2517847961846955	-0.2517847961846671	-0.004572026501264629	1.12681293008307e-05	-0.005831006303324295	-0.0007103463188470285	-0.3943450114047338	0.0130923660034506	-0.005025228532061009	-0.2939590757789199	0.0957652959386544	0.04720056361471512	0.4334994567674151	-19.06481524663466	-17.40918727899857	2.604575707073744	5.570438347843323	-785.1464070150561	-75.05135681854998	-1.80048180433015	1.02631191627453	0.1827964297007995	1.22764974784832	-4.584154251617642	-0.005891755564935978	-1.396790003241565	0.3400507340727274	-4.109998943749927	-4.109998943749917	-0.2056383307469611	-0.01176401184524826	-0.8221230584394392	-0.2867975759161843	-2.006729268447214e-08	-2.879096298949728e-08	6.522336637871036e-08	1.279904313645616e-08	-3.304392818015413e-08	6.210809805792533e-08	-1.790895390104158e-08
1.03	-0.1507389085371801	-0.08722095631109207	0.7307955008328192	1.236751592394716	-0.3280611367706788	-0.005231936664745132	-0.9598283876315948	1.157322336201807	1.157322336201804	-0.0796703369359868	-0.1745323865844249	0.1500283745024727	0.01443923303183529	0.1350988096340104	0.03133304158802703	0.1044932412508202	-0.430731063528887	6.904583734009686e-05	-0.1064874736226813	0.009139758002524877	-0.2927656418899026	-0.2927656418898769	-0.006407582296512736	2.532909926914375e-05	-0.01394944935218773	-0.003387348705420277	-0.3948898942671616	0.0133972606879161	-0.005069065565165287	-0.293205399402628	0.09561193253325913	0.04744704239092315	0.434751764828166	-19.11951307827378	-17.52651678150235	2.645967224178789	5.08315031460754	-785.7236127013201	-75.16427921766272	-1.858037034588868	0.9847993633979248	0.19903667938951	1.215531147350918	-4.53282085507423	0.01484798657190531	-1.396025480998626	0.4793226774826155	-4.089337687891705	-4.089337687892098	-0.1730510037435075	0.007631896000936044	-0.8033269102677706	-0.2557614551543791	-2.463742589630223e-08	-3.779722772981075e-08	7.73169132275757e-08	1.601972163169901e-08	-3.77587476561098e-08	6.737205327089091e-08	-2.130677164470966e-08
1.04	-0.1493389178485197	-0.08689737864474741	0.7319011197239604	1.232217686827216	-0.3280599172310514	-0.006366411913406874	-0.9597112441974407	1.154190240646449	1.154190240646298	-0.07974368040607857	-0.1745321222710518	0.1498488507091532	0.01439237279189922	0.144852881038274	0.03341076918486604	0.1166159973763531	-0.4760049426386581	0.0001815041961225583	-0.1203967376860819	0.01449397479387055	-0.333634899754534	-0.333634899754511	-0.008264610084951786	2.50198525599542e-05	-0.02193277168737017	-0.005968746497052961	-0.3954347771295914	0.0137021553723813	-0.005112902598269467	-0.2924517230263361	0.09545856912786413	0.04769352116713092	0.4360040728889151	-19.18520265243237	-17.64148536819784	2.68648396525683	4.632618424465539	-786.4491656899521	-75.2689885451494	-1.925291206665513	0.9705605388415069	0.2167552221583236	1.210141583936122	-4.530048468549802	0.002054876479753912	-1.383940606266664	0.586105892765324	-4.087681375634799	-4.087681375634825	-0.20993272938515	-0.01463805518075369	-0.7950989157032384	-0.2676766569280742	-2.714079821977144e-08	-4.626686410506336e-08	8.617594671305489e-08	1.622834884741026e-08	-4.138999289062083e-08	6.863133487315541e-08	-2.375877255399039e-08
